<svg xmlns="http://www.w3.org/2000/svg" version="1.1" xmlns:xlink="http://www.w3.org/1999/xlink" xmlns:svgjs="http://svgjs.dev/svgjs" width="1500" height="1500" viewBox="0 0 1500 1500"><rect width="1500" height="1500" fill="#ffffff"></rect><g transform="matrix(0.6666666666666666,0,0,0.6666666666666666,249.29842045261307,220.4291497975708)"><svg viewBox="0 0 233 247" data-background-color="#ffffff" preserveAspectRatio="xMidYMid meet" height="1590" width="1500" xmlns="http://www.w3.org/2000/svg" xmlns:xlink="http://www.w3.org/1999/xlink"><g id="tight-bounds" transform="matrix(1,0,0,1,0.16346803454115388,-0.09999999999999432)"><svg viewBox="0 0 232.6730639309177 247.2" height="247.2" width="232.6730639309177"><g><svg viewBox="0 0 397.4975999999999 422.3153512482842" height="247.2" width="232.6730639309177"><g><rect width="397.4975999999999" height="12.08063607891386" x="0" y="216.75719239966807" fill="#000000" opacity="1" stroke-width="0" stroke="transparent" fill-opacity="1" class="rect-yte-0" data-fill-palette-color="primary" rx="1%" id="yte-0" data-palette-color="#001f3f"></rect></g><g><rect width="397.4975999999999" height="12.08063607891386" x="0" y="244.65017936721264" fill="#000000" opacity="1" stroke-width="0" stroke="transparent" fill-opacity="1" class="rect-yte-1" data-fill-palette-color="primary" rx="1%" id="yte-1" data-palette-color="#001f3f"></rect></g><g transform="matrix(1,0,0,1,0.9887999999999693,288.3555172233879)"><svg viewBox="0 0 395.52 133.95983402489628" height="133.95983402489628" width="395.52"><g id="textblocktransform"><svg viewBox="0 0 395.52 133.95983402489628" height="133.95983402489628" width="395.52" id="textblock"><g><svg viewBox="0 0 395.52 133.95983402489628" height="133.95983402489628" width="395.52"><g transform="matrix(1,0,0,1,0,0)"><svg width="395.52" viewBox="1.9 -32.3 96.39999999999999 32.65" height="133.95983402489628" data-palette-color="#001f3f"><path d="M16.1-32.3Q21.15-32.3 24.85-29.9L24.85-29.9 24.05-26.25 23.6-26.15Q20.25-28.95 15.9-28.95L15.9-28.95Q11.15-28.95 8.6-25.68 6.05-22.4 6.05-16.1L6.05-16.1Q6.05-9.75 8.6-6.4 11.15-3.05 15.8-3.05L15.8-3.05Q18-3.05 20.18-3.85 22.35-4.65 24.15-6.1L24.15-6.1 24.65-5.85 24.3-2.05Q19.95 0.35 15.45 0.35L15.45 0.35Q9 0.35 5.45-3.83 1.9-8 1.9-15.75L1.9-15.75Q1.9-23.7 5.6-28 9.3-32.3 16.1-32.3L16.1-32.3ZM70.25-32.05L58.75 0 54.6 0 48.35-18.6 48-18.6 41.4 0 37.25 0 27.05-32.05 31.05-32.05 31.6-28.95 39.4-4.45 39.75-4.45 46.65-23.95 43.95-32.05 48.05-32.05 48.8-28.6 56.7-4.45 57-4.45 65.7-28.75 66.45-32.05 70.25-32.05ZM97.5-32.05L87.34-16.7 98.3 0 93.45 0 92.09-2.6 84.65-13.55 77-2.35 75.75 0 71.45 0 82.34-16.2 71.84-32.05 76.7-32.05 78.05-29.5 84.95-19.25 91.84-29.55 93.15-32.05 97.5-32.05Z" opacity="1" transform="matrix(1,0,0,1,0,0)" fill="#000000" class="wordmark-text-0" data-fill-palette-color="primary" id="text-0"></path></svg></g></svg></g></svg></g></svg></g><g transform="matrix(1,0,0,1,106.18255468879663,0)"><svg viewBox="0 0 185.13249062240666 185.13249062240666" height="185.13249062240666" width="185.13249062240666"><g><svg xmlns="http://www.w3.org/2000/svg" viewBox="5 5 90 90" x="0" y="0" height="185.13249062240666" width="185.13249062240666" class="icon-icon-0" data-fill-palette-color="accent" id="icon-0"><path d="M19.8 40.5H80.3V51.5H19.8zM19.8 69.5H40.3V80.5H19.8zM59.8 80.5H80.3V69.5H59.8" fill="#000000" data-fill-palette-color="accent"></path><path d="M5 26.3V89C5 92.3 7.7 95 11 95H89C92.3 95 95 92.3 95 89V26.3zM44.3 82.5C44.3 83.6 43.4 84.5 42.3 84.5H17.8C16.6 84.5 15.8 83.6 15.8 82.5V67.5C15.8 66.4 16.7 65.5 17.8 65.5H42.3C43.4 65.5 44.3 66.4 44.3 67.5zM84.3 82.5C84.3 83.6 83.4 84.5 82.3 84.5H57.8C56.7 84.5 55.8 83.6 55.8 82.5V67.5C55.8 66.4 56.7 65.5 57.8 65.5H82.2C83.4 65.5 84.2 66.4 84.3 67.5zM84.3 53.5C84.3 54.6 83.4 55.5 82.3 55.5H17.8C16.6 55.5 15.8 54.6 15.8 53.5V38.5C15.8 37.4 16.7 36.5 17.8 36.5H82.3C83.4 36.5 84.3 37.4 84.3 38.5zM95 22.3V11C95 7.7 92.3 5 89 5H11C7.7 5 5 7.7 5 11V22.3zM86 13.2C87.1 13.2 88 14.1 88 15.2S87.1 17.2 86 17.2 84 16.3 84 15.2 84.9 13.2 86 13.2M77.5 13.2C78.6 13.2 79.5 14.1 79.5 15.2S78.6 17.2 77.5 17.2 75.5 16.3 75.5 15.2 76.4 13.2 77.5 13.2M69 13.2C70.1 13.2 71 14.1 71 15.2S70.1 17.2 69 17.2 67 16.3 67 15.2 67.9 13.2 69 13.2" fill="#000000" data-fill-palette-color="accent"></path></svg></g></svg></g><g></g></svg></g><defs></defs></svg><rect width="232.6730639309177" height="247.2" fill="none" stroke="none" visibility="hidden"></rect></g></svg></g></svg>